<svg width="39" height="38" viewBox="0 0 39 38" fill="none" xmlns="http://www.w3.org/2000/svg">
<path fill-rule="evenodd" clip-rule="evenodd" d="M37.7336 23.5516C37.4912 23.4562 37.2146 23.5159 37.0345 23.7027L34.3201 26.5308V9.73295H34.3233L36.9132 6.96113C37.1514 6.70593 37.1357 6.30711 36.878 6.07094L36.8774 6.07036L35.9452 5.21044L37.2405 3.82454C37.4784 3.56904 37.4624 3.17051 37.2047 2.93463L34.4082 0.367561C34.1507 0.131386 33.7487 0.14667 33.5104 0.402165L28.9916 5.23841H6.99115C6.98911 3.49954 5.56761 2.09057 3.81328 2.08855H3.17788C1.42354 2.09057 0.00203654 3.49954 0 5.23841V32.3264C0 32.6742 0.284534 32.9562 0.635691 32.9562H10.2566L8.92179 34.5449C8.69748 34.8125 8.73414 35.2095 9.00383 35.4319L11.9344 37.8504C12.2041 38.0731 12.605 38.0367 12.8296 37.7694L12.8299 37.7691L16.0828 33.8954C16.3074 33.6273 16.452 33.3017 16.4998 32.9562H28.1456L24.3259 36.932C24.0841 37.184 24.0943 37.5828 24.3486 37.8225C24.4667 37.9338 24.6235 37.9961 24.7867 37.9958H37.4976C37.8488 37.9958 38.1333 37.7137 38.1333 37.366V24.137C38.1333 23.8792 37.9751 23.6474 37.7336 23.5516ZM35.5485 6.5612L34.3199 7.87848V6.95194L35.0824 6.13297L35.5485 6.5612ZM33.0487 6.45797V6.44903H33.0562L34.1487 5.27998L32.2821 3.56822L25.807 10.5041L27.6737 12.2158L33.0487 6.45797ZM26.4528 12.8116L24.9909 13.2343L25.303 11.7564L26.4528 12.8116ZM35.8754 3.42976L34.0096 1.71886L33.1458 2.64366L35.0119 4.35629L35.8754 3.42976ZM3.1781 3.34846H3.8135C4.86668 3.34846 5.72028 4.19454 5.72028 5.23844V29.193C5.17333 28.776 4.50331 28.5488 3.8135 28.5465H3.1781C2.488 28.5488 1.81827 28.776 1.27132 29.193V5.23844C1.27132 4.19454 2.12492 3.34846 3.1781 3.34846ZM3.8135 29.8064H3.1781C2.12492 29.8064 1.27132 30.6528 1.27132 31.6964H5.72028C5.72028 30.6528 4.86668 29.8064 3.8135 29.8064ZM15.1061 33.0897L14.6994 33.5736L12.7458 31.9616L13.1519 31.4771C13.3765 31.2098 13.7771 31.1735 14.0468 31.3961C14.0471 31.3961 14.0471 31.3964 14.0474 31.3964L15.0241 32.2003C15.2941 32.4227 15.331 32.8198 15.1067 33.0874L15.1061 33.0879V33.0897ZM10.3061 34.867L12.26 36.479L13.8863 34.542L11.9327 32.9297L10.3061 34.867ZM16.2327 31.6964C16.1271 31.5219 15.9936 31.3659 15.8374 31.2341L14.8607 30.4284C14.0513 29.7605 12.8492 29.8693 12.1754 30.6715L11.313 31.6964H6.99121V6.49833H27.8157L24.4429 10.111C24.3946 10.165 24.3562 10.2272 24.3297 10.2944C24.3222 10.3126 24.3163 10.3296 24.3099 10.3486C24.3076 10.3559 24.3047 10.3631 24.3018 10.3705C24.2972 10.3822 24.2924 10.3942 24.2896 10.4066L23.5308 14.0023C23.4593 14.3429 23.6798 14.6765 24.0234 14.7474C24.1255 14.7685 24.2311 14.7645 24.3309 14.7356L27.8902 13.7076C27.899 13.7048 27.9072 13.7008 27.9152 13.6968L27.9261 13.6916C27.9295 13.69 27.9329 13.6886 27.9364 13.6874C27.9524 13.6816 27.969 13.6735 27.9862 13.6652C28.0575 13.6332 28.1221 13.5879 28.1768 13.5322L33.049 8.31304V27.8536L29.3565 31.6964H16.2327ZM26.2694 36.7357H36.8623V25.7117L26.2694 36.7357ZM30.5071 35.476C30.2499 35.476 30.018 35.3226 29.9197 35.0872C29.8213 34.8519 29.8757 34.5809 30.0576 34.4006L34.5065 29.9912C34.6255 29.8729 34.7873 29.8066 34.9557 29.8066C35.3066 29.8066 35.5914 30.0884 35.5914 30.4364V34.8462C35.5914 35.1939 35.3069 35.476 34.9557 35.476H30.5071ZM34.3204 34.216V31.9569L32.0413 34.216H34.3204ZM23.5156 24.1369H27.9643C28.3155 24.1369 28.6 24.4189 28.6 24.7667C28.6 25.1148 28.3155 25.3968 27.9646 25.3968H10.169C9.81787 25.3968 9.53333 25.1148 9.53333 24.7667C9.53333 24.4189 9.81787 24.1369 10.169 24.1369H14.6177V17.2074C14.6183 17.0404 14.6849 16.8801 14.8033 16.7613L18.6166 12.9816C18.8648 12.7356 19.2671 12.7356 19.5153 12.9816L23.3286 16.7613C23.4476 16.8798 23.5148 17.0401 23.5156 17.2074V24.1369ZM21.3463 16.5773L19.0671 14.3182L16.7879 16.5773H21.3463ZM15.889 17.8372H22.2448V24.137H15.889V17.8372ZM18.431 10.2781H19.7024V11.5379H18.431V10.2781ZM19.7024 26.6567H18.431V27.9166H19.7024V26.6567Z" fill="#D3A945"/>
</svg>
